<mxfile host="app.diagrams.net" modified="2023-06-04T14:51:43.089Z" agent="Mozilla/5.0 (Windows NT 10.0; Win64; x64; rv:109.0) Gecko/20100101 Firefox/113.0" etag="I8Ci9jsrckc-a3m7gunu" version="21.3.3" type="github">
  <diagram name="Page-1" id="x8fMApyFyObHUy9lHsWz">
    <mxGraphModel dx="989" dy="520" grid="1" gridSize="10" guides="1" tooltips="1" connect="1" arrows="1" fold="1" page="1" pageScale="1" pageWidth="827" pageHeight="1169" math="0" shadow="0">
      <root>
        <mxCell id="0" />
        <mxCell id="1" parent="0" />
        <mxCell id="LC_499VcMojjto52mvdn-8" style="edgeStyle=orthogonalEdgeStyle;rounded=0;orthogonalLoop=1;jettySize=auto;html=1;entryX=0;entryY=0.5;entryDx=0;entryDy=0;" edge="1" parent="1" source="LC_499VcMojjto52mvdn-1" target="LC_499VcMojjto52mvdn-2">
          <mxGeometry relative="1" as="geometry" />
        </mxCell>
        <mxCell id="LC_499VcMojjto52mvdn-1" value="&lt;font face=&quot;Lucida Console&quot;&gt;Spletna aplikacij&lt;/font&gt;" style="rounded=1;whiteSpace=wrap;html=1;" vertex="1" parent="1">
          <mxGeometry x="180" y="170" width="120" height="60" as="geometry" />
        </mxCell>
        <mxCell id="LC_499VcMojjto52mvdn-3" value="&lt;font face=&quot;Lucida Console&quot;&gt;Podatkovna baza&lt;br&gt;&lt;/font&gt;" style="rounded=1;whiteSpace=wrap;html=1;" vertex="1" parent="1">
          <mxGeometry x="590" y="170" width="110" height="60" as="geometry" />
        </mxCell>
        <mxCell id="LC_499VcMojjto52mvdn-5" value="&lt;font face=&quot;Lucida Console&quot;&gt;Klasifikacijski model gostovan preko&lt;br&gt;Hugging Face API&lt;br&gt;&lt;/font&gt;" style="rounded=1;whiteSpace=wrap;html=1;" vertex="1" parent="1">
          <mxGeometry x="360" y="40" width="170" height="70" as="geometry" />
        </mxCell>
        <mxCell id="LC_499VcMojjto52mvdn-6" value="" style="group" vertex="1" connectable="0" parent="1">
          <mxGeometry x="365" y="155" width="160" height="90" as="geometry" />
        </mxCell>
        <mxCell id="LC_499VcMojjto52mvdn-2" value="&lt;font face=&quot;Lucida Console&quot;&gt;API&lt;/font&gt;" style="rounded=1;whiteSpace=wrap;html=1;verticalAlign=top;" vertex="1" parent="LC_499VcMojjto52mvdn-6">
          <mxGeometry width="160" height="90" as="geometry" />
        </mxCell>
        <mxCell id="LC_499VcMojjto52mvdn-4" value="&lt;div&gt;&lt;font face=&quot;Lucida Console&quot;&gt;Lokalni klasifikacijski&lt;br&gt;&lt;/font&gt;&lt;/div&gt;&lt;div&gt;&lt;font face=&quot;Lucida Console&quot;&gt;model&lt;/font&gt;&lt;/div&gt;" style="rounded=0;whiteSpace=wrap;html=1;" vertex="1" parent="LC_499VcMojjto52mvdn-6">
          <mxGeometry x="22.5" y="30" width="117.5" height="60" as="geometry" />
        </mxCell>
        <mxCell id="LC_499VcMojjto52mvdn-7" style="edgeStyle=orthogonalEdgeStyle;rounded=0;orthogonalLoop=1;jettySize=auto;html=1;" edge="1" parent="1" source="LC_499VcMojjto52mvdn-2" target="LC_499VcMojjto52mvdn-5">
          <mxGeometry relative="1" as="geometry" />
        </mxCell>
        <mxCell id="LC_499VcMojjto52mvdn-9" style="edgeStyle=orthogonalEdgeStyle;rounded=0;orthogonalLoop=1;jettySize=auto;html=1;entryX=0;entryY=0.5;entryDx=0;entryDy=0;" edge="1" parent="1" source="LC_499VcMojjto52mvdn-2" target="LC_499VcMojjto52mvdn-3">
          <mxGeometry relative="1" as="geometry" />
        </mxCell>
      </root>
    </mxGraphModel>
  </diagram>
</mxfile>
